<?xml version="1.0" encoding="UTF-8"?>
<!DOCTYPE svg PUBLIC "-//W3C//DTD SVG 1.1//EN" "http://www.w3.org/Graphics/SVG/1.1/DTD/svg11.dtd">
<!-- Creator: CorelDRAW X7 -->
<svg xmlns="http://www.w3.org/2000/svg" xml:space="preserve" width="4.23509in" height="1.25426in" version="1.1" shape-rendering="geometricPrecision" text-rendering="geometricPrecision" image-rendering="optimizeQuality" fill-rule="evenodd" clip-rule="evenodd"
viewBox="0 0 4643 1375"
 xmlns:xlink="http://www.w3.org/1999/xlink">
 <g id="Layer_x0020_1">
  <metadata id="CorelCorpID_0Corel-Layer"/>
  <path fill="#FF3E54" d="M1098 1166c-64,8 -191,18 -203,19 -63,5 -147,11 -209,18 -8,1 -24,0 -30,6 3,6 0,0 4,5 14,15 9,10 44,16l498 81c9,2 21,2 26,8 4,6 10,15 14,21 30,47 22,42 76,14 35,-17 -4,-23 20,-40 24,-16 -10,-41 -32,-85 8,-21 67,-138 82,-169 27,-57 54,-113 82,-170 13,-28 82,-146 98,-165l1389 0 0 -86 -1293 0c-51,0 -125,-10 -165,25 -15,13 -73,104 -90,130 -61,99 -121,197 -182,297 -4,-2 -15,-16 -28,-36 -77,-137 -161,-279 -240,-417 -24,-41 -46,-85 -70,-127 -8,-13 -67,-123 -71,-125l-293 0c-14,0 -13,4 -19,14 -8,14 -16,27 -24,41l-48 84 290 0c124,221 248,424 374,641z"/>
  <path fill="#FF3E54" d="M818 892l-157 -274c-70,-3 -176,0 -252,0 -14,0 -28,0 -41,0 -20,0 -25,3 -36,-8 -97,-97 -68,-270 68,-321 47,-17 103,-12 156,-12 56,0 112,0 168,0 53,0 116,3 168,0 -21,-49 -137,-252 -158,-274 -50,-1 -262,-2 -303,2 -96,7 -184,44 -248,95 -6,5 -16,12 -21,17 -14,14 -26,23 -38,37 -26,32 -44,50 -65,89 -81,153 -80,332 13,478 41,63 88,110 154,151 19,11 28,20 56,20l229 0c102,0 205,-1 307,0z"/>
  <path fill="#FF3E54" fill-rule="nonzero" d="M1271 255c-33,0 -67,7 -102,23l0 278 -137 0 0 -415 122 0 7 51c45,-39 92,-59 141,-59l36 0 0 122 -67 0zm255 199c27,0 59,-5 93,-15l0 -47 -113 0c-8,0 -14,2 -20,7 -5,6 -7,12 -7,20l0 8c0,8 2,14 7,19 6,6 12,8 20,8l20 0zm-145 -305c95,-11 181,-16 258,-16 36,0 64,11 85,32 22,22 33,50 33,86l0 305 -122 0 -8 -39c-24,16 -49,28 -75,35 -26,8 -48,12 -66,12l-27 0c-36,0 -64,-11 -85,-32 -22,-22 -33,-50 -33,-86l0 -35c0,-35 11,-64 33,-85 21,-22 49,-32 85,-32l160 0 0 -32c0,-7 -2,-14 -7,-19 -6,-5 -12,-8 -20,-8 -34,0 -71,2 -112,5 -41,3 -74,5 -99,7l0 -98zm610 305c28,0 59,-5 94,-15l0 -47 -113 0c-8,0 -14,2 -20,7 -5,6 -8,12 -8,20l0 8c0,8 3,14 8,19 6,6 12,8 20,8l19 0zm-144 -305c95,-11 181,-16 258,-16 36,0 64,11 85,32 22,22 32,50 32,86l0 305 -121 0 -8 -39c-24,16 -49,28 -75,35 -26,8 -48,12 -66,12l-27 0c-36,0 -64,-11 -85,-32 -22,-22 -33,-50 -33,-86l0 -35c0,-35 11,-64 33,-85 21,-22 49,-32 85,-32l160 0 0 -32c0,-7 -2,-14 -7,-19 -6,-5 -12,-8 -20,-8 -34,0 -71,2 -112,5 -41,3 -74,5 -99,7l0 -98zm724 -16c42,0 75,16 98,47 24,-16 50,-28 78,-36 28,-7 53,-11 75,-11l7 0c36,0 64,11 86,32 21,22 32,50 32,86l0 305 -137 0 0 -282c0,-8 -3,-14 -8,-19 -5,-6 -12,-8 -20,-8l-3 0c-24,0 -54,5 -91,15l0 294 -137 0 0 -282c0,-8 -2,-14 -7,-19 -6,-6 -12,-8 -20,-8l-4 0c-23,0 -53,5 -90,15l0 294 -137 0 0 -415 121 0 8 39c25,-16 50,-28 76,-36 26,-7 47,-11 65,-11l8 0z"/>
  <path fill="#0E1F51" fill-rule="nonzero" d="M3025 446c106,8 189,12 250,12 8,0 15,-2 20,-8 5,-5 8,-11 8,-19l0 -28 -169 0c-35,0 -63,-10 -85,-32 -21,-21 -32,-50 -32,-85l0 -28c0,-35 11,-64 32,-85 22,-21 50,-32 85,-32l267 0 0 102 -220 0c-7,0 -14,2 -19,8 -5,5 -8,11 -8,19 0,8 3,15 8,20 5,5 12,8 19,8l141 0c36,0 64,10 86,32 21,21 32,50 32,85l0 31c0,36 -11,64 -32,86 -22,21 -50,32 -86,32 -92,0 -191,-5 -297,-16l0 -102zm893 -7c0,39 -11,69 -34,92 -22,22 -53,33 -92,33l-180 0c-39,0 -70,-11 -92,-33 -22,-23 -33,-53 -33,-92l0 -181c0,-39 11,-69 33,-92 22,-22 53,-33 92,-33l180 0c39,0 70,11 92,33 23,23 34,53 34,92l0 181zm-137 -169c0,-21 -11,-31 -32,-31l-94 0c-21,0 -31,10 -31,31l0 157c0,21 10,31 31,31l94 0c21,0 32,-10 32,-31l0 -157zm544 -156c-15,-1 -35,-3 -60,-5 -26,-2 -47,-3 -65,-3 -19,0 -30,2 -36,8 -5,5 -8,11 -8,19l0 39 130 0 0 106 -130 0 0 278 -137 0 0 -278 -54 0 0 -106 54 0 0 -55c0,-35 11,-63 33,-85 21,-21 49,-32 85,-32 32,0 65,1 101,3 35,2 64,4 87,5l0 106zm305 442c-50,5 -100,8 -149,8 -35,0 -64,-11 -85,-32 -21,-22 -32,-50 -32,-86l0 -199 -47 0 0 -106 47 0 16 -94 121 0 0 94 98 0 0 106 -98 0 0 180c0,8 3,14 8,19 5,6 12,8 19,8l102 0 0 102z"/>
  <polygon fill="#0E1F51" points="3027,725 4643,725 4643,639 3027,639 "/>
 </g>
</svg>
